<svg width="113" height="24" viewBox="0 0 113 24" fill="none" xmlns="http://www.w3.org/2000/svg">
<path d="M42.0168 5.30649L38.3088 14.2835L34.3828 5.30649H32.0078L37.2428 16.9065L35.3278 21.5455H37.4608L44.4158 5.30849L42.0168 5.30649ZM52.0018 17.2065C52.8284 17.2551 53.6561 17.1328 54.4332 16.847C55.2104 16.5613 55.9202 16.1183 56.5184 15.5458C57.1166 14.9734 57.5903 14.2836 57.9099 13.5198C58.2295 12.756 58.3881 11.9344 58.3758 11.1065C58.3881 10.2786 58.2295 9.45703 57.9099 8.69318C57.5903 7.92934 57.1166 7.23962 56.5184 6.66713C55.9202 6.09465 55.2104 5.65169 54.4332 5.36596C53.6561 5.08023 52.8284 4.95785 52.0018 5.00649C51.1752 4.95785 50.3475 5.08023 49.5704 5.36596C48.7932 5.65169 48.0834 6.09465 47.4852 6.66713C46.887 7.23962 46.4133 7.92934 46.0937 8.69318C45.7741 9.45703 45.6155 10.2786 45.6278 11.1065C45.6157 11.9343 45.7744 12.7558 46.094 13.5195C46.4136 14.2832 46.8874 14.9728 47.4856 15.5452C48.0837 16.1176 48.7935 16.5604 49.5706 16.8461C50.3477 17.1318 51.1753 17.2541 52.0018 17.2055V17.2065ZM52.0018 15.2585C51.4489 15.2893 50.8956 15.2029 50.3784 15.005C49.8611 14.8071 49.3915 14.5022 49.0003 14.1102C48.6091 13.7182 48.305 13.248 48.1082 12.7304C47.9113 12.2128 47.826 11.6594 47.8578 11.1065C47.826 10.5536 47.9113 10.0002 48.1082 9.48257C48.305 8.96494 48.6091 8.49473 49.0003 8.10275C49.3915 7.71077 49.8611 7.40585 50.3784 7.20797C50.8956 7.01009 51.4489 6.92371 52.0018 6.95449C52.5548 6.92371 53.108 7.01009 53.6252 7.20797C54.1425 7.40585 54.6121 7.71077 55.0033 8.10275C55.3946 8.49473 55.6986 8.96494 55.8955 9.48257C56.0923 10.0002 56.1777 10.5536 56.1458 11.1065C56.1775 11.6593 56.0921 12.2126 55.8951 12.7301C55.6982 13.2476 55.3942 13.7177 55.0029 14.1096C54.6117 14.5014 54.1422 14.8063 53.625 15.0041C53.1078 15.2019 52.5547 15.2883 52.0018 15.2575V15.2585ZM67.6338 5.00449C66.8315 4.97496 66.0345 5.14616 65.315 5.50256C64.5956 5.85897 63.9765 6.3893 63.5138 7.04549L63.3438 5.30549H61.5228V16.9055H63.6558V10.1555C63.6558 8.04449 65.5948 6.95549 67.3398 6.95549C67.7443 6.93037 68.1495 6.98971 68.5298 7.12974C68.9101 7.26977 69.2571 7.48742 69.5487 7.76885C69.8403 8.05027 70.0701 8.38931 70.2235 8.7644C70.3769 9.13948 70.4506 9.54239 70.4398 9.94749V16.9065H72.5728V9.71549C72.5795 9.07547 72.4545 8.4409 72.2057 7.8512C71.9569 7.26149 71.5895 6.72923 71.1263 6.28745C70.6632 5.84568 70.1142 5.50383 69.5134 5.28313C68.9126 5.06243 68.2728 4.96759 67.6338 5.00449V5.00449ZM87.4578 5.30449H83.1678C82.5079 5.10352 81.8216 5.0024 81.1318 5.00449C78.0538 5.00449 76.0428 6.74449 76.0428 9.29549C76.0297 9.87986 76.1468 10.4598 76.3854 10.9934C76.6241 11.5269 76.9785 12.0007 77.4228 12.3805C76.9445 12.4919 76.5194 12.7652 76.2194 13.1541C75.9194 13.543 75.7631 14.0236 75.7768 14.5145C75.7767 14.9214 75.876 15.3222 76.0659 15.6821C76.2559 16.0419 76.5308 16.35 76.8668 16.5795C76.3517 16.7707 75.9079 17.116 75.5959 17.5683C75.2838 18.0206 75.1187 18.558 75.1228 19.1075C75.1228 21.2875 77.2798 23.0075 81.3998 23.0075C85.5428 23.0045 87.4578 21.4945 87.4578 19.0145C87.4578 16.5095 85.5228 15.3735 81.3748 15.3735H79.2658C78.4418 15.3735 77.9328 15.1415 77.9328 14.4735C77.9328 13.7735 78.4178 13.4065 79.2658 13.4065H79.5808C80.0901 13.5199 80.6111 13.5726 81.1328 13.5635C84.1378 13.5635 86.1978 11.8705 86.1978 9.29549C86.2144 8.42066 85.942 7.56477 85.4228 6.86049L87.4578 6.69449V5.30449ZM81.1328 11.6615C79.2178 11.6615 78.2228 10.8035 78.2228 9.29449C78.2228 7.80949 79.2168 6.90549 81.1308 6.90549C82.9968 6.90549 84.0148 7.80549 84.0148 9.29449C84.0158 10.8035 82.9988 11.6615 81.1328 11.6615ZM85.2518 19.0145C85.2518 20.3365 84.2348 21.0795 81.4228 21.0795C78.3688 21.0795 77.3518 20.1285 77.3518 19.0385C77.3518 18.2735 77.7878 17.6935 78.8058 17.2755C78.9584 17.2947 79.1121 17.3024 79.2658 17.2985H81.3748C84.3068 17.2945 85.2518 17.7395 85.2518 19.0145ZM91.2618 11.9145H100.835C100.94 11.3874 100.997 10.8519 101.005 10.3145C101.005 7.62349 99.0898 5.00249 95.2858 5.00249C91.5778 5.00249 89.0328 7.48449 89.0328 11.0335C89.0118 11.8692 89.1648 12.7001 89.4821 13.4735C89.7993 14.2469 90.274 14.9459 90.8758 15.5261C91.4776 16.1063 92.1935 16.555 92.978 16.8438C93.7625 17.1326 94.5984 17.255 95.4328 17.2035C97.2083 17.2386 98.9314 16.6006 100.256 15.4175L98.9698 13.9115C98.0077 14.8202 96.7301 15.3193 95.4068 15.3035C94.4165 15.3647 93.4395 15.0498 92.6712 14.4219C91.903 13.7939 91.4 12.8992 91.2628 11.9165L91.2618 11.9145ZM95.2368 6.90449C95.6799 6.85549 96.1284 6.90062 96.5529 7.03693C96.9773 7.17324 97.3682 7.39766 97.7 7.6955C98.0317 7.99334 98.2968 8.35788 98.4779 8.76526C98.659 9.17264 98.752 9.61367 98.7508 10.0595H91.2868C91.4343 9.13641 91.9209 8.30158 92.6515 7.71842C93.3821 7.13525 94.304 6.84572 95.2368 6.90649V6.90449ZM110.287 5.00449C109.465 4.98401 108.652 5.17571 107.926 5.56108C107.2 5.94645 106.586 6.51247 106.143 7.20449L105.973 5.30449H104.156V16.9045H106.289V10.4095C106.292 9.93909 106.39 9.47414 106.577 9.0427C106.765 8.61127 107.038 8.2223 107.38 7.8993C107.721 7.57629 108.125 7.32595 108.567 7.16339C109.008 7.00083 109.478 6.92943 109.948 6.95349C110.402 6.95866 110.852 7.037 111.281 7.18549L112.008 5.26049C111.45 5.09083 110.87 5.00456 110.287 5.00449V5.00449Z" fill="#273244" stroke="#273244" stroke-width="0.5"/>
<path d="M9.49284 20.0515L9.49277 20.0514L1.95072 6.64607L1.9507 6.64604C0.65596 4.34486 2.31872 1.50046 4.95918 1.50046L20.0408 1.50046C22.6811 1.50046 24.3442 4.34224 23.0493 6.64606C23.0492 6.6462 23.0491 6.64633 23.0491 6.64646L15.5072 20.0514L15.5063 20.053C14.1909 22.3977 10.8143 22.4008 9.49284 20.0515Z" stroke="#273244" stroke-width="3" stroke-linecap="round" stroke-linejoin="round"/>
</svg>
